<?xml version="1.0" encoding="UTF-8"?>
<svg width="189px" height="203px" viewBox="0 0 189 203" version="1.1" xmlns="http://www.w3.org/2000/svg" xmlns:xlink="http://www.w3.org/1999/xlink">
    <g id="Page-1" stroke="none" stroke-width="1" fill="none" fill-rule="evenodd">
        <g id="pipe-bg" transform="translate(-453.000000, -248.000000)" fill-rule="nonzero">
            <g id="Group" transform="translate(453.000000, 248.000000)">
                <path d="M160,15 C160.2,18.1 159.5,21.2 158.1,23.9 C156.1,28.3 155.6,32.4 159,36.7 C161.2,39.5 161.4,43.3 159.2,45.9 C155.1,50.8 156.8,55.3 158.6,60.2 C160.9,66.3 161.1,72.4 156.9,77.9 C155.9,79.1 154.8,80.2 153.5,81.1 C150.9,83.1 148.8,82.2 146.8,80.1 C144.8,78 144.3,75.6 146.4,73.7 C150.3,70 149.4,65.8 147.7,61.9 C144.9,55.5 144.8,49.3 147.8,43 C148.4,41.7 148.3,40.2 147.6,38.9 C144.6,33.2 145,27.4 147.4,21.6 C149.2,17.1 149.8,12.9 146.4,8.8 C144.7,6.7 145.1,4.6 147,2.7 C148.9,0.8 151.2,0.3 153.6,1.8 C158.2,4.9 160.3,9.3 160,15 Z" id="Path" fill="#3D92CB"></path>
                <path d="M113.5,67.2 C114.4,64.4 115,61 116.3,57.9 C118.1,53.9 117.5,50.3 115.4,46.9 C113.2,43.2 112.6,39.9 115.5,36.3 C118.3,32.8 117.9,28.9 116.2,25 C113.6,18.9 112.4,12.9 115.8,6.6 C118.2,2.1 123.3,-0.2 126.5,2.3 C129.1,4.3 129.7,6.9 127.5,9.3 C124.1,12.8 124.5,16.4 126.1,20.4 C128.7,26.9 129.3,33.3 126.2,39.8 C125.5,41.3 125.8,42.8 126.5,44.3 C129.2,50.1 128.5,56 126.4,61.7 C124.9,65.8 123.6,69.6 127.3,73.6 C129.5,75.9 129.1,78.8 126.4,81.1 C123.8,83.3 121.8,82.3 119.6,80.6 C115.4,77.2 114.1,72.7 113.5,67.2 Z" id="Path" fill="#3D92CB"></path>
                <g transform="translate(0.000000, 12.000000)" fill="#FFFFFF" id="Path">
                    <path d="M99.9,190.9 C98.7,190.4 97.3,190.5 96,190.3 C88.5,189 81.5,186.2 74.8,182.6 C56.1,172.5 44.8,156.8 39.4,136.5 C38.1,131.6 38,126.5 37.8,121.4 C37.4,107.4 37.6,93.3 37.6,79.3 C37.6,74 37.6,68.7 37.6,63.3 C37.6,62.5 37.8,62.2 38.7,62.2 C47.4,62.2 56,62.2 64.7,62.2 C65.6,62.2 65.8,62.4 65.8,63.4 C65.8,72.8 65.8,82.2 65.8,91.6 C65.8,95.3 65.9,99 66.2,102.8 C66.9,109.9 72.6,115.4 79.7,115.8 C85.2,116.1 89.8,114.1 92.8,109.4 C94.2,107.3 95.7,106.6 98.2,106.7 C124.9,106.8 151.5,106.8 178.2,106.7 C179.5,106.7 179.8,107.1 179.8,108.3 C179.7,114.9 179.8,121.5 179.2,128 C178.3,137.4 175.4,146.3 170.9,154.5 C163.2,168.6 151.6,178.5 137.1,185.2 C130.6,188.2 123.9,190.4 116.7,190.6 C116.5,190.6 116.4,190.6 116.3,190.8 L99.9,190.9 Z"></path>
                    <path d="M188,95.7 C187.4,97.3 186.2,98.5 185,99.7 C183.9,100.8 182.8,101.2 181.2,101.2 C154.8,101.1 128.4,101.1 101.9,101.1 C99.1,101.1 96.3,100.9 93.6,100.8 C90,100.7 87.7,97.6 87.2,94.8 C86.7,91.5 87.6,88.6 90.2,86.4 C91.2,85.5 92.6,84.9 94,84.8 C101.2,84.4 108.4,84.4 115.6,84.4 C134.3,84.3 153.1,84.3 171.8,84.5 C174.9,84.5 177.9,84.6 181,84.8 C184.7,85 187.1,87.3 187.8,90.9 C187.8,91.1 187.7,91.4 188.1,91.5 L188.1,95.7 L188,95.7 Z"></path>
                    <path d="M0,15.2 C3.7,11.2 8,8.2 12.7,5.6 C17.2,3.1 21.9,1.2 27,0.4 C41.9,-2.1 56.1,7.4 59.6,22.1 C60.5,25.8 60.6,29.6 60.9,33.4 C61,34.1 60.6,34.1 60.1,34.1 C54.7,34.5 49.2,34.4 43.8,34.1 C43.1,34.1 43.1,33.8 43.1,33.3 C43.1,31.3 43.1,29.2 42.7,27.2 C41.5,22.1 37.5,16.7 29.4,17.8 C22,18.8 14.9,21.4 8.7,25.5 C7.2,26.5 7.2,26.4 6.2,25 C4.1,22.1 1.9,19.3 0,16.2 L0,15.2 L0,15.2 Z"></path>
                    <path d="M50.1,40 C55.3,40 60.4,39.8 65.5,40.2 C66.4,40.3 67.2,40.4 68.1,40.5 C72.4,41.4 74.9,45.4 74,50.2 C73.3,54.2 70.9,56 66.1,56.4 C59.2,56.9 52.3,56.7 45.4,56.7 C42.2,56.7 39,56.7 35.9,56.2 C30.9,55.4 28.2,51.4 29.5,46.4 C29.8,45.1 30.5,43.8 31.4,42.7 C32.8,41 34.6,40.2 36.8,40.1 C39,40.1 41.2,39.9 43.4,39.9 C45.7,40 47.9,40 50.1,40 Z"></path>
                </g>
            </g>
        </g>
    </g>
</svg>